<?xml version="1.0" encoding="UTF-8" standalone="no"?>
<!-- Created with Inkscape (http://www.inkscape.org/) -->

<svg
   width="512"
   height="512"
   viewBox="0 0 135.46667 135.46667"
   version="1.1"
   id="svg1"
   xml:space="preserve"
   xmlns="http://www.w3.org/2000/svg"
   xmlns:svg="http://www.w3.org/2000/svg"><defs
     id="defs1" /><g
     id="layer1"><g
       id="g50"
       transform="matrix(0.10597238,0,0,0.15863825,0.20710571,-0.09513299)"><path
         d="m 0,0 c 422.4,0 844.8,0 1280,0 0,282.15 0,564.3 0,855 C 857.6,855 435.2,855 0,855 0,572.85 0,290.7 0,0 Z"
         fill="#9de4d8"
         id="path1" /><path
         d="m 0,0 c 1.11,0 1.11,0 2.24,0 2.49,0 4.98,0 7.47,0.01 1.8,0 3.6,0 5.4,-0.01 4.96,0 9.91,0.01 14.86,0.02 5.34,0 10.68,0 16.01,0.01 12.89,0 25.79,0.02 38.68,0.03 3.64,0.01 7.27,0.01 10.91,0.02 22.59,0.02 45.18,0.05 67.76,0.09 5.23,0.01 10.46,0.02 15.69,0.03 1.3,0 2.6,0 3.94,0.01 21.09,0.03 42.17,0.05 63.26,0.05 21.63,0.01 43.26,0.04 64.9,0.08 12.15,0.03 24.3,0.04 36.45,0.04 10.34,-0.01 20.69,0.01 31.03,0.04 5.28,0.02 10.56,0.03 15.84,0.01 4.83,-0.01 9.66,0 14.49,0.04 1.75,0 3.5,0 5.25,-0.01 2.38,-0.01 4.75,0 7.12,0.03 0.69,-0.01 1.37,-0.02 2.08,-0.04 1.92,0.04 1.92,0.04 5.21,0.67 2.3,2.42 2.3,2.42 4,5 1.65,1.36 3.31,2.69 5,4 1.68,1.65 3.34,3.32 5,5 8.69,8.84 8.69,8.84 17.87,17.17 6.98,6.02 13.74,12.12 19.68,19.19 1.93,2.19 4.13,3.88 6.45,5.64 1.69,1.65 3.35,3.32 5,5 1.16,1.17 2.33,2.34 3.5,3.5 4.25,4.25 4.25,4.25 8.5,8.5 0.53,0.52 1.06,1.05 1.61,1.58 3.01,2.96 5.86,5.95 8.57,9.17 3.5,4.07 7.43,7.61 11.41,11.18 2.83,2.56 5.46,5.15 7.91,8.07 3.18,3.78 6.72,7.06 10.38,10.36 5.41,4.88 10.7,9.88 15.98,14.9 4.07,3.85 8.22,7.59 12.48,11.24 2.16,1.96 3.84,4.23 5.66,6.5 1.99,1.84 4.03,3.6 6.09,5.35 4.24,3.67 6.72,6.18 7.16,11.99 0.01,1.36 0.01,2.72 0,4.08 0,0.76 0,1.51 0,2.29 0.01,2.54 0,5.08 -0.01,7.62 0.01,1.84 0.01,3.67 0.01,5.5 0.01,5.06 0,10.11 -0.01,15.16 0,5.44 0,10.88 0.01,16.33 0,10.66 -0.01,21.33 -0.01,32 -0.01,12.41 -0.01,24.82 -0.01,37.23 0,22.8 -0.01,45.6 -0.03,68.4 -0.01,20.83 -0.02,41.67 -0.02,62.5 0,1.34 0,2.67 0,4.01 0,0.66 0,1.33 0,2.01 0,25.11 0,50.22 -0.01,75.34 0,8.66 -0.01,17.32 -0.01,25.98 0,10.55 0,21.09 -0.01,31.64 -0.01,5.38 -0.01,10.77 -0.01,16.15 0,4.92 0,9.84 -0.01,14.77 0,1.78 0,3.57 0,5.36 0.01,2.42 0,4.83 0,7.25 0,1.06 0,1.06 0,2.14 -0.02,4.79 -0.02,4.79 -1.13,5.9 -2.91,0.1 -5.79,0.13 -8.7,0.13 -0.93,0 -1.86,0 -2.82,0 -3.15,0.01 -6.3,0 -9.45,0 -2.27,0 -4.54,0 -6.8,0 -6.27,0.01 -12.53,0.01 -18.79,0 -6.06,0 -12.11,0 -18.16,0.01 -13.17,0 -26.33,0 -39.49,0 -11.55,-0.01 -23.09,-0.01 -34.64,0 -1.15,0 -1.15,0 -2.32,0 -3.11,0 -6.22,0 -9.33,0 -29.21,0 -58.43,0 -87.64,-0.01 -25.88,0 -51.75,0 -77.62,0 -29.1,0.01 -58.2,0.01 -87.29,0.01 -3.12,0 -6.24,0 -9.35,0 -0.77,0 -1.54,0 -2.33,-0.01 -11.5,0 -23,0.01 -34.5,0.01 -13.13,0 -26.26,0 -39.4,-0.01 -6.68,0 -13.36,0 -20.04,0 -24.6,0.02 -49.19,-0.04 -73.78,-0.57 -1.43,-0.03 -1.43,-0.03 -2.89,-0.06 -2.64,-0.06 -5.28,-0.12 -7.91,-0.19 -0.78,-0.01 -1.56,-0.03 -2.36,-0.05 -5.28,-0.14 -5.28,-0.14 -6.39,-1.26 -0.1,-3.19 -0.13,-6.35 -0.13,-9.54 0,-1.02 0,-2.04 0,-3.09 0,-3.46 0,-6.92 0.01,-10.38 0,-2.49 0,-4.98 -0.01,-7.47 0,-5.43 0,-10.86 0.01,-16.3 0,-8.07 0,-16.15 0,-24.23 0,-13.59 0.01,-27.18 0.01,-40.77 0.01,-13.46 0.01,-26.92 0.01,-40.38 0,-0.84 0,-1.67 0,-2.53 0,-4.25 0,-8.49 0,-12.74 0.01,-30.09 0.01,-60.18 0.02,-90.27 0.01,-29.24 0.02,-58.48 0.02,-87.72 0,-0.9 0,-1.81 0,-2.73 0,-9.05 0,-18.1 0.01,-27.14 0,-18.43 0,-36.86 0,-55.29 0,-0.84 0,-1.69 0,-2.56 0.01,-56.62 0.03,-113.24 0.05,-169.86 C -8.26,0.12 -4.25,-0.02 0,0 Z"
         fill="#100f10"
         transform="translate(346.41324,116.8786)"
         id="path2" /><path
         d="m 0,0 c 103.62,0 207.24,0 314,0 0.33,1.32 0.66,2.64 1,4 0.99,0.66 1.98,1.32 3,2 0.3,2.88 0.4,5.55 0.37,8.44 0.01,0.87 0.01,1.75 0.01,2.65 0.01,2.89 0,5.79 -0.02,8.69 0,2.01 0,4.01 0,6.02 0,4.21 -0.01,8.43 -0.02,12.64 -0.03,5.4 -0.03,10.81 -0.02,16.21 0,4.15 0,8.3 -0.01,12.45 -0.01,1.99 -0.01,3.98 -0.01,5.98 0,2.78 -0.01,5.56 -0.03,8.35 0.01,1.24 0.01,1.24 0.01,2.51 -0.03,3.87 -0.08,5.76 -2.28,9.06 0.25,2.39 0.25,2.39 1,5 0.32,1.49 0.32,1.49 0.65,3.01 0.24,1.03 0.48,2.06 0.73,3.11 0.35,1.56 0.35,1.56 0.71,3.14 0.93,2.8 1.77,3.82 3.91,5.74 0,0.66 0,1.32 0,2 4.39,-0.51 6.78,-3.2 10,-6 8.72,-4.36 23.26,-2.14 32.98,-2.13 1.66,0 3.32,0 4.98,0 4.49,-0.01 8.98,-0.01 13.47,0 4.8,0 9.59,0 14.38,-0.01 8.12,0 16.23,0 24.35,0.01 8.15,0 16.31,0 24.47,0 41.38,-0.02 82.77,0.03 124.15,0.54 2.55,0.04 5.1,0.06 7.64,0.09 3.93,0.05 7.86,0.1 11.79,0.16 1.43,0.02 2.87,0.04 4.3,0.05 1.93,0.03 3.87,0.06 5.81,0.09 1.62,0.02 1.62,0.02 3.27,0.04 C 607,114 607,114 608,115 c 1.77,0.1 3.54,0.13 5.31,0.13 1.08,0 2.15,0.01 3.26,0.01 1.13,-0.01 2.26,-0.01 3.43,-0.02 1.7,0.01 1.7,0.01 3.43,0.02 1.07,0 2.15,-0.01 3.26,-0.01 0.99,0 1.99,0 3.01,0 2.26,0.13 2.26,0.13 3.3,-1.13 3,-0.12 3,-0.12 6,0 0.33,0.33 0.66,0.66 1,1 2.69,0.15 5.35,0.24 8.05,0.28 0.88,0.02 1.75,0.04 2.66,0.06 3.01,0.06 6.03,0.11 9.04,0.16 2.15,0.04 4.29,0.08 6.44,0.12 36.27,0.66 72.54,0.99 108.81,1.38 0,0.33 0,0.66 0,1 -145.53,0 -291.06,0 -441,0 0.33,198.99 0.66,397.98 1,603 40.63,0.83 40.63,0.83 81.26,1.12 2.3,0 4.61,0 6.91,0 6.11,0.01 12.23,0 18.34,0 5.98,-0.01 11.97,-0.01 17.95,-0.01 12.18,0.01 24.37,0 36.55,0 12.02,-0.01 24.04,-0.01 36.06,-0.02 0.75,0 1.51,0 2.28,0 3.84,0 7.67,0 11.51,0 26.97,0 53.94,-0.01 80.92,-0.01 26.16,-0.01 52.32,-0.02 78.48,-0.03 0.81,0 1.62,0 2.46,0 8.14,0 16.27,0 24.41,0 16.57,0 33.14,0 49.71,-0.01 0.76,0 1.52,0 2.31,0 23.28,0 46.56,-0.01 69.84,-0.01 1.3,0 2.6,-0.01 3.94,-0.01 26.02,0 52.05,-0.01 78.07,-0.02 0.33,-45.21 0.66,-90.42 1,-137 4,3 4,3 4.48,5.12 -0.01,0.81 -0.02,1.63 -0.03,2.47 0,0.93 0,1.86 0,2.81 -0.03,1.5 -0.03,1.5 -0.06,3.03 -0.01,1.55 -0.01,1.55 -0.02,3.12 -0.02,3.3 -0.07,6.59 -0.12,9.89 -0.02,2.21 -0.04,4.43 -0.05,6.65 -0.04,4.89 -0.1,9.78 -0.17,14.66 -0.04,3.01 -0.03,6.01 0.01,9.01 0,0.97 0.01,1.93 0.02,2.93 0.01,0.97 0.03,1.94 0.04,2.95 C 941,650 941,650 940,651 c -0.11,2.25 -0.16,4.51 -0.17,6.77 -0.01,0.7 -0.02,1.41 -0.02,2.14 -0.02,1.54 -0.03,3.08 -0.04,4.62 -0.02,2.44 -0.04,4.88 -0.06,7.32 -0.08,6.93 -0.14,13.86 -0.19,20.79 -0.03,4.23 -0.07,8.47 -0.12,12.71 -0.01,1.61 -0.03,3.23 -0.03,4.84 -0.02,2.26 -0.04,4.52 -0.07,6.78 -0.01,1.29 -0.02,2.58 -0.03,3.9 C 939,724 939,724 937,727 c -5.64,1.85 -10.81,2.29 -16.72,2.27 -0.84,0.01 -1.68,0.01 -2.54,0.02 -2.8,0.01 -5.6,0.01 -8.4,0.01 -2.01,0.01 -4.03,0.02 -6.04,0.03 -4.33,0.02 -8.66,0.03 -12.99,0.04 -6.85,0.01 -13.7,0.03 -20.55,0.06 -10.84,0.04 -21.68,0.07 -32.52,0.1 -19.4,0.05 -38.8,0.12 -58.2,0.19 -6.81,0.02 -13.61,0.04 -20.42,0.06 -4.24,0.01 -8.48,0.02 -12.72,0.04 -1.96,0 -3.92,0.01 -5.88,0.01 -13.54,0.01 -13.54,0.01 -27.02,1.17 0.37,1.97 0.37,1.97 1,4 1.72,1.16 1.72,1.16 4,2 7.8,3.77 14.03,7.52 19.96,13.86 4.42,4.64 8.87,7.84 14.92,9.95 5.2,1.91 8.33,4.96 12.28,8.75 4.91,4.22 10.55,7.23 16.14,10.44 5.07,2.97 9.84,6.31 14.45,9.94 6.58,4.99 14.09,9.31 22.06,11.56 4.24,1.27 6.59,3.47 9.78,6.46 7.86,6.63 16.77,11.09 26.59,13.96 3.21,1.23 5.48,2.85 8.2,4.96 8.27,6.4 18.02,11.06 28.62,11.12 1.48,0.02 1.48,0.02 2.99,0.04 2.67,0.02 5.34,0 8.01,-0.04 0.51,2.5 1,4.97 1.31,7.5 0.87,3.17 2.6,5 4.69,7.5 0,0.66 0,1.32 0,2 -299.64,0 -599.28,0 -908,0 C 0,572.85 0,290.7 0,0 Z"
         fill="#94e2d5"
         id="path3" /><path
         d="m 0,0 c 144.87,0 289.74,0 439,0 0,124.74 0,249.48 0,378 -20,3 -20,3 -30,2 -3.03,-0.05 -6.03,-0.07 -9.05,-0.03 -1.69,0.02 -3.37,0.03 -5.06,0.04 -2.6,0.02 -5.2,0.05 -7.8,0.09 -28.23,0.34 -28.23,0.34 -35.09,-6.1 -0.39,-0.87 -0.78,-1.73 -1.19,-2.62 -2.21,-2.9 -3.13,-2.88 -6.62,-3.5 -0.83,-0.11 -1.67,-0.22 -2.52,-0.33 C 339,367 339,367 336.08,365.44 c -3.57,-1.67 -5.62,-1.6 -9.52,-1.32 -7.16,0.19 -12.6,-1.42 -19.2,-3.89 -2.72,-1 -5.22,-1.69 -8.05,-2.23 -3.31,-1 -3.31,-1 -5.06,-3.38 -2.65,-3.09 -4.15,-3.38 -8,-4.5 -6.15,-1.84 -9.85,-4.54 -14.25,-9.12 -5.11,-5.23 -8.68,-7.7 -15.83,-9.43 C 245.71,328.83 229.98,324.4 224,315 c -0.35,-0.95 -0.7,-1.9 -1.06,-2.88 -3.56,-5.73 -9.88,-8.56 -16.19,-10.56 -4.54,-1.57 -7.3,-4.48 -9.75,-8.56 -0.23,-1.24 -0.45,-2.48 -0.69,-3.75 -0.43,-1.07 -0.86,-2.14 -1.31,-3.25 -2.18,-0.72 -2.18,-0.72 -4.81,-1.12 -7.41,-1.55 -11.08,-6.27 -16.04,-11.59 -2.67,-2.85 -5.48,-5.29 -8.59,-7.67 -8.14,-6.33 -8.14,-6.33 -10.56,-10.62 -0.25,-3.75 -0.25,-3.75 0,-7 -0.66,-0.99 -1.32,-1.98 -2,-3 -1.05,-0.21 -2.1,-0.41 -3.19,-0.62 -4.61,-1.16 -6.75,-4.28 -9.45,-8 -1.75,-3.06 -1.9,-5.92 -2.36,-9.38 -1.44,-1.63 -3.01,-3.01 -4.64,-4.45 -2.21,-2.52 -2.11,-5.32 -2.36,-8.55 -2.11,-2.11 -3.05,-2.42 -5.81,-3.25 -4.45,-1.63 -6.62,-3.67 -9.19,-7.75 -0.34,-1.45 -0.63,-2.91 -0.88,-4.38 -0.83,-4.9 -3.21,-7.22 -6.6,-10.72 -1.52,-1.9 -1.52,-1.9 -1.96,-5.46 -0.76,-4.67 -3.04,-5.95 -6.75,-8.67 -2.27,-2.22 -2.52,-3.64 -2.81,-6.77 0.1,-1.16 0.21,-2.31 0.31,-3.5 0.07,-3.7 0.07,-3.7 -2.93,-5.94 -0.82,-0.58 -0.82,-0.58 -1.65,-1.17 -2.69,-2.16 -4.47,-4.91 -6.43,-7.72 -1.21,-1.81 -1.21,-1.81 -3.3,-2.67 -2.62,-0.13 -5.22,-0.21 -7.84,-0.25 -1.63,-0.03 -3.26,-0.06 -4.89,-0.09 -0.85,-0.02 -1.7,-0.03 -2.58,-0.05 -24.24,-0.46 -24.24,-0.46 -34.19,-1.36 -0.71,-0.05 -1.42,-0.1 -2.14,-0.15 C 26.09,143.54 23.65,141.61 20,138 16.06,132.82 15.03,126.33 13.73,120.09 13.12,117.52 12.4,115.39 11.31,113 9.86,109.5 9.97,106.58 10.12,102.81 10.33,94.89 7.89,88.01 3.94,81.16 0.95,75.83 0.52,71.67 0.81,65.62 1.29,60.15 1.29,60.15 0,55 -0.32,51.66 -0.51,48.32 -0.72,44.97 -0.81,42.07 -0.81,42.07 -2,40 -2.4,35.39 -2.52,30.75 -2.69,26.12 -2.75,24.83 -2.81,23.54 -2.87,22.21 -2.92,20.97 -2.96,19.72 -3.01,18.45 -3.06,17.31 -3.1,16.17 -3.15,14.99 -2.99,11.9 -2.36,10.7 -1,8 -0.67,5.36 -0.34,2.72 0,0 Z"
         fill="#a8e6db"
         transform="translate(841)"
         id="path4" /><path
         d="m 0,0 c 11.56,8.14 11.56,8.14 13.41,15.14 0.45,3.68 0.44,7.29 0.28,10.98 -0.04,1.02 -0.04,1.02 -0.08,2.06 -0.46,6.29 -2.91,10.08 -7.61,14.13 -0.74,0.54 -1.49,1.07 -2.25,1.63 0.23,1.96 0.23,1.96 1,4 1.89,0.91 3.78,1.82 5.68,2.7 9.34,5.22 14.71,14.56 18.32,24.3 0.72,3.7 1.05,7.23 1,11 -3.01,1.66 -5.75,2.49 -9.13,3.12 -0.86,0.17 -1.73,0.34 -2.63,0.51 -2.24,0.37 -2.24,0.37 -4.24,0.37 -9.55,0.6 -9.55,0.6 -19,2 -0.33,0.66 -0.66,1.32 -1,2 -0.99,0 -1.98,0 -3,0 0.43,3.05 0.9,5.75 2.06,8.62 0.94,2.38 0.94,2.38 0.94,6.38 1.37,0.18 1.37,0.18 2.77,0.36 1.19,0.17 2.38,0.34 3.6,0.51 1.19,0.16 2.37,0.33 3.59,0.49 3.04,0.64 3.04,0.64 5.04,2.64 -2.97,1.98 -5.94,3.96 -9,6 0.19,1.88 0.19,1.88 0.37,3.81 0.11,1.06 0.11,1.06 0.22,2.14 0.34,2.35 0.34,2.35 2.41,5.05 -0.33,0.99 -0.66,1.98 -1,3 -2.88,-0.41 -3.87,-0.86 -5.87,-3.06 -2.02,-2.18 -2.02,-2.18 -5,-2.5 -4.27,0.76 -5.91,2.69 -9.13,5.56 -0.99,0 -1.98,0 -3,0 -1.25,-3.55 -0.72,-5.73 0.44,-9.25 0.28,-0.89 0.57,-1.79 0.87,-2.71 0.23,-0.67 0.45,-1.35 0.69,-2.04 -0.66,0 -1.32,0 -2,0 -1.67,-1.67 -3.33,-3.34 -5,-5 -1.63,-1.06 -3.29,-2.08 -5,-3 -0.19,1.28 -0.37,2.56 -0.56,3.87 -0.11,0.72 -0.21,1.44 -0.32,2.18 -0.29,2.03 -0.29,2.03 0.88,3.95 -2.63,-0.49 -4.18,-1.12 -6.44,-2.63 -2.45,-1.61 -2.45,-1.61 -5.12,-1.19 -2.29,0.77 -4.33,1.65 -6.44,2.82 -1.13,-1.63 -1.13,-1.63 -2,-4 0.87,-3.25 0.87,-3.25 2,-6 -0.99,0 -1.98,0 -3,0 0,-0.99 0,-1.98 0,-3 -1.32,-0.66 -2.64,-1.32 -4,-2 0,-0.99 0,-1.98 0,-3 3.3,0 6.6,0 10,0 0.14,-0.91 0.29,-1.82 0.44,-2.75 0.42,-2.47 0.91,-4.84 1.56,-7.25 0.66,0 1.32,0 2,0 -1.76,-3.73 -1.76,-3.73 -5.13,-5.75 -0.61,-0.08 -1.23,-0.17 -1.87,-0.25 -1,-1 -1,-1 -1.29,-4.07 0.35,-4.7 1.73,-7.76 3.92,-11.87 0.36,-0.7 0.72,-1.4 1.1,-2.12 6.72,-12.7 6.72,-12.7 12.08,-15.32 0.72,-0.2 1.45,-0.41 2.19,-0.62 0.33,-0.66 0.66,-1.32 1,-2 0.99,-0.29 1.98,-0.58 3,-0.88 0.99,-0.37 1.98,-0.74 3,-1.12 0.97,-2.03 0.97,-2.03 1,-4 -0.66,0 -1.32,0 -2,0 -0.43,-0.75 -0.87,-1.49 -1.31,-2.25 -1.86,-3.03 -3.89,-4.61 -6.69,-6.75 -1.81,-3.62 -1.27,-7.83 -1.31,-11.82 -0.03,-0.9 -0.06,-1.8 -0.09,-2.73 -0.06,-6.73 -0.06,-6.73 2.29,-10.4 0.7,-0.68 1.39,-1.36 2.11,-2.05 0.66,-0.99 1.32,-1.98 2,-3 1.32,0 2.64,0 4,0 0,-0.99 0,-1.98 0,-3 C -16.42,-1.38 -8.23,-2.69 0,0 Z"
         fill="#87d6c8"
         transform="translate(645.25,308.0625)"
         id="path5" /><path
         d="m 0,0 c 4.41,3.53 6.09,6.42 7,12 0.38,8.92 -3.15,14.37 -8.7,21.04 -1.62,2.05 -1.62,2.05 -1.3,5.46 1.22,4.29 2.32,5.07 6,7.5 6.48,4.46 13.41,9.82 17,17 0.36,7.47 0.36,7.47 -2,11 -10.12,4.04 -23,3.18 -33.69,3.19 -1.06,0.01 -2.12,0.02 -3.22,0.03 -15.09,0.03 -15.09,0.03 -19.75,-3.46 -2.26,-2.43 -3.29,-4.33 -3.64,-7.62 0.54,-5.68 3.69,-9.85 7.3,-14.14 2.48,-1.84 4.97,-3.29 7.69,-4.75 3.11,-1.68 5.22,-3.39 7.31,-6.25 1.09,-3.24 1.09,-3.24 0,-7 -1.91,-2.84 -3.98,-5.52 -6.08,-8.22 -3.33,-4.82 -4.02,-9.21 -3.8,-14.97 1.77,-5.66 5,-9.52 9.88,-12.81 6.98,-2.18 13.62,-1.56 20,2 z"
         fill="#95e3d6"
         transform="translate(647,317)"
         id="path6" /><path
         d="m 0,0 c 0.66,-0.33 1.32,-0.66 2,-1 2,1.38 2,1.38 4,3 0,0.66 0,1.32 0,2 0.58,0.19 1.15,0.37 1.75,0.56 3.3,2.11 4.92,4.84 6.25,8.44 0.9,5.7 0.19,10.11 -3,15 -2.12,2.31 -2.12,2.31 -4,4 -0.33,0.33 -0.66,0.66 -1,1 0.33,0.99 0.66,1.98 1,3 2.5,1.22 2.5,1.22 5,2 0,0.66 0,1.32 0,2 0.59,0.26 1.19,0.52 1.8,0.79 2.36,1.3 3.71,2.6 5.45,4.65 0.52,0.59 1.04,1.19 1.58,1.81 C 22,49 22,49 22,52 c 0.66,0 1.32,0 2,0 0.25,1.43 0.47,2.87 0.69,4.31 0.13,0.8 0.25,1.6 0.38,2.43 C 25,61 25,61 23.81,62.78 21.49,64.34 20.09,64.31 17.31,64.19 16.1,64.15 16.1,64.15 14.86,64.11 14.25,64.07 13.63,64.04 13,64 c 0,0.66 0,1.32 0,2 -1.21,-0.02 -1.21,-0.02 -2.45,-0.04 -1.07,0 -2.14,-0.01 -3.24,-0.02 C 5.73,65.92 5.73,65.92 4.11,65.9 1.27,65.99 -1.23,66.42 -4,67 -7.5,66.58 -9.01,66 -12,64 -13.18,61.28 -13.18,61.28 -14.31,57.94 -16.49,51.97 -19.19,47.06 -23,42 c 2.58,-2.65 4.92,-4.94 8,-7 -1.11,-3.49 -2.26,-6.77 -4,-10 -0.66,0 -1.32,0 -2,0 -1.98,-12.33 -1.98,-12.33 1.05,-17.95 3.41,-4.58 7.07,-6.23 12.49,-7.74 C -4.73,-1.03 -2.67,-0.58 0,0 Z"
         fill="#86d4c7"
         transform="translate(689,320)"
         id="path7" /><path
         d="m 0,0 c 3.9,0.26 5.71,0.85 8.75,3.25 0,0.66 0,1.32 0,2 0.58,0.19 1.15,0.37 1.75,0.56 3.29,2.11 4.87,4.88 6.25,8.44 1.01,6.94 -1.09,11.29 -5,17 -0.66,0.66 -1.32,1.32 -2,2 0,0.99 0,1.98 0,3 1.65,1.03 3.32,2.03 5,3 0,0.66 0,1.32 0,2 0.66,0 1.32,0 2,0 -0.94,2.82 -1.64,4.67 -3.87,6.69 -2.69,2.92 -3.74,5.89 -5.1,9.58 -1.24,3.29 -2.63,6.5 -4.03,9.73 -3.62,0.09 -7.25,0.14 -10.87,0.19 -1.02,0.02 -2.03,0.05 -3.08,0.07 -6.86,0.07 -12.6,-0.88 -19.05,-3.26 -1.3,-5.6 -0.5,-9.39 2.33,-14.31 3.84,-5.91 7.44,-10.23 13.67,-13.69 -0.94,-3.37 -1.7,-5.67 -4.05,-8.3 -3.43,-4.74 -2.66,-10.09 -1.95,-15.7 1.75,-3.56 1.75,-3.56 4,-6 0.6,-0.76 1.2,-1.53 1.81,-2.31 2.95,-2.28 5.54,-2.35 9.19,-2.69 1,-1 1,-1 4.25,-1.25 z"
         fill="#87d5c8"
         transform="translate(588.25,318.75)"
         id="path8" /><path
         d="m 0,0 c 0.33,0 0.66,0 1,0 0.33,198.66 0.66,397.32 1,602 14.52,0.33 29.04,0.66 44,1 0.5,1.49 0.5,1.49 1,3 -7.05,2.28 -13.77,2.37 -21.13,2.37 -2.23,0 -4.46,0.04 -6.69,0.08 -1.44,0.01 -2.89,0.01 -4.33,0.01 -1.29,0.01 -2.58,0.02 -3.91,0.03 -3.52,-0.44 -5.54,-1.07 -8.69,-2.52 -0.8,-0.37 -1.6,-0.73 -2.42,-1.11 -0.6,-0.29 -1.21,-0.57 -1.83,-0.86 -0.87,-15.07 -1.13,-30.07 -1.09,-45.16 0,-2.37 0.01,-4.74 0.01,-7.1 0,-5.78 0.02,-11.56 0.03,-17.33 0.01,-6.94 0.02,-13.87 0.03,-20.8 0.02,-13.57 0.05,-27.14 0.07,-40.71 0.03,-11.87 0.05,-23.73 0.07,-35.6 0,-0.79 0,-1.57 0,-2.39 0.01,-3.2 0.01,-6.4 0.02,-9.6 0.05,-29.98 0.1,-59.96 0.16,-89.93 0.05,-26.64 0.1,-53.29 0.14,-79.93 0.05,-29.95 0.1,-59.91 0.16,-89.86 0,-3.19 0.01,-6.38 0.01,-9.57 0.01,-0.78 0.01,-1.57 0.01,-2.38 0.02,-11.87 0.04,-23.74 0.06,-35.61 0.02,-13.48 0.04,-26.96 0.07,-40.44 0.02,-6.89 0.03,-13.77 0.04,-20.65 0.01,-6.29 0.02,-12.58 0.04,-18.86 0,-2.29 0.01,-4.57 0.01,-6.86 0,-3.08 0.01,-6.17 0.02,-9.25 0,-0.91 0,-1.82 0,-2.75 C -2.11,13.11 -2.11,13.11 -1,12 -0.77,9.98 -0.59,7.96 -0.44,5.94 -0.31,4.28 -0.31,4.28 -0.18,2.59 -0.12,1.74 -0.06,0.88 0,0 Z"
         fill="#8bddcf"
         transform="translate(333,119)"
         id="path9" /><path
         d="m 0,0 c 0,0.66 0,1.32 0,2 0.99,0.33 1.98,0.66 3,1 4.45,6.49 8.42,13.01 7,21 -1.96,8.16 -5.23,13.93 -12,19 -4.32,2.54 -8.87,4.9 -14,4 -0.99,-0.66 -1.98,-1.32 -3,-2 0,0.66 0,1.32 0,2 C -26.74,45.17 -33.7,40.18 -38.62,34 -42.35,27.81 -42,20.96 -41,14 c 1.17,-3.48 2.72,-6.13 5,-9 0.46,-0.58 0.92,-1.17 1.39,-1.77 C -25.75,-6.75 -10.94,-6.33 0,0 Z"
         fill="#86d4c7"
         transform="translate(519,486)"
         id="path10" /><path
         d="M 0,0 C 1.33,0 1.33,0 2.68,0 3.62,0 4.55,0 5.51,0.01 6.43,0 7.36,0 8.31,0 9.64,0 9.64,0 11,0 c 0.82,0 1.63,0 2.47,0 2.16,0.13 2.16,0.13 5.16,1.13 0,0.66 0,1.32 0,2 0.59,0.12 1.18,0.24 1.79,0.36 5.01,1.46 8.22,4.91 10.78,9.36 2.8,6.19 4.92,12.46 3.43,19.28 -1.45,2.14 -1.45,2.14 -3,4 -0.39,0.77 -0.78,1.53 -1.18,2.32 C 26.09,44.9 20.71,48.82 13.16,50.7 7.43,51.68 1.85,52.07 -3.37,49.13 -4.54,46.79 -4.53,45.31 -4.59,42.7 -4.61,41.78 -4.63,40.86 -4.66,39.92 -4.68,38.93 -4.7,37.93 -4.72,36.91 -4.74,35.89 -4.77,34.88 -4.79,33.83 -4.84,31.68 -4.88,29.53 -4.92,27.38 -4.99,24.08 -5.07,20.78 -5.15,17.47 -5.19,15.39 -5.24,13.31 -5.28,11.22 -5.31,10.23 -5.33,9.23 -5.35,8.21 -5.37,7.29 -5.39,6.38 -5.4,5.44 -5.42,4.63 -5.44,3.82 -5.46,2.99 -5.28,-0.66 -3.11,0 0,0 Z"
         fill="#88d7c9"
         transform="translate(796.36719,481.86719)"
         id="path11" /><path
         d="m 0,0 c 0.58,0.2 1.17,0.41 1.77,0.62 5.88,1.94 11.37,2.8 17.55,3.2 6.01,0.4 11.82,1.84 17.68,3.18 -0.99,0.33 -1.98,0.66 -3,1 0.43,3.06 0.9,5.76 2.06,8.62 C 37,19 37,19 37,23 c 0.92,0.12 1.83,0.24 2.77,0.37 1.19,0.16 2.38,0.33 3.61,0.51 1.18,0.16 2.36,0.32 3.58,0.49 C 50,25 50,25 52,27 c -2.97,1.98 -5.94,3.96 -9,6 0.12,1.26 0.25,2.52 0.38,3.81 0.1,1.06 0.1,1.06 0.21,2.15 0.34,2.34 0.34,2.34 2.41,5.04 -0.33,0.99 -0.66,1.98 -1,3 -2.88,-0.41 -3.87,-0.86 -5.88,-3.06 -2.01,-2.18 -2.01,-2.18 -5,-2.5 -4.26,0.77 -5.9,2.7 -9.12,5.56 -0.99,0 -1.98,0 -3,0 -1.25,-3.55 -0.72,-5.72 0.44,-9.25 0.28,-0.89 0.57,-1.78 0.87,-2.7 0.23,-0.68 0.45,-1.35 0.69,-2.05 -0.66,0 -1.32,0 -2,0 -1.67,-1.67 -3.33,-3.33 -5,-5 -1.63,-1.05 -3.29,-2.07 -5,-3 -0.19,1.28 -0.37,2.56 -0.56,3.88 -0.11,0.71 -0.21,1.43 -0.32,2.17 C 10.83,33.08 10.83,33.08 12,35 9.37,34.51 7.82,33.88 5.56,32.38 3.11,30.76 3.11,30.76 0.44,31.19 -1.85,31.95 -3.89,32.83 -6,34 c -1.12,-1.62 -1.12,-1.62 -2,-4 0.88,-3.25 0.88,-3.25 2,-6 -0.99,0 -1.98,0 -3,0 0,-0.99 0,-1.98 0,-3 -1.32,-0.66 -2.64,-1.32 -4,-2 0,-0.99 0,-1.98 0,-3 3.3,0 6.6,0 10,0 0.14,-0.91 0.29,-1.81 0.44,-2.75 C -2.14,10.79 -1.65,8.41 -1,6 -0.34,6 0.32,6 1,6 0.34,4.35 -0.32,2.7 -1,1 -0.67,0.67 -0.34,0.34 0,0 Z"
         fill="#131516"
         transform="translate(602,394)"
         id="path12" /><path
         d="m 0,0 c 3.02,0.7 3.81,1.22 5.69,3.62 0.58,2.34 0.58,2.34 0.81,4.94 0.09,0.86 0.18,1.71 0.27,2.59 -0.08,2.47 -0.08,2.47 -1.1,4.44 -1.33,2.75 -0.94,4.6 -0.55,7.6 0.67,5.14 0.67,5.14 -0.43,8.43 -0.42,5.24 -0.04,9.16 2,14 0.25,3.53 0.35,6.15 -1,9.44 -1.87,4.79 -1.16,9.73 -0.38,14.69 0.38,3.87 0.38,3.87 -0.81,6.94 -1.11,2.78 -1.11,2.78 -0.02,4.65 0.76,1.19 1.53,2.37 2.3,3.56 0.91,1.72 0.91,1.72 0.84,4.85 -0.93,2.88 -0.93,2.88 -2.5,5.13 -1.9,3.64 -1.62,6.58 -1.44,10.64 0,1.04 0,1.04 0.01,2.1 -1,1 -1,1 -3.38,1.26 -2.62,-0.26 -2.62,-0.26 -4.19,-1.46 -1.74,-2.18 -2.29,-4.04 -3,-6.73 -0.68,-2.56 -1.3,-4.82 -2.53,-7.17 -1.48,-3.12 -0.64,-5.6 0.1,-8.9 0.76,-1.3 0.76,-1.3 1.54,-2.64 1.91,-4.4 1.85,-7.94 1.58,-12.67 -0.04,-0.84 -0.08,-1.69 -0.12,-2.56 -0.5,-6.29 -2.11,-9.76 -6.53,-14.35 -1.47,-1.78 -1.47,-1.78 -1.72,-5.46 1.51,-4.01 3.41,-6.12 6.25,-9.32 2.01,-5.57 1.63,-12.2 1,-18 -1.38,-2.73 -3.03,-4.62 -5,-7 0.15,-3.08 0.69,-4.61 2.63,-7.01 C -4.16,0.79 -4.16,0.79 0,0 Z"
         fill="#9ee5d9"
         transform="translate(246.3125,3.375)"
         id="path13" /><path
         d="M 0,0 C 1.01,0 2.02,0 3.07,0 4.67,0 4.67,0 6.3,0.01 7.35,0 8.4,0 9.48,0 c 1.53,0 1.53,0 3.08,0 0.93,0 1.86,0 2.82,0 2.65,0.13 5.09,0.54 7.67,1.13 0,0.66 0,1.32 0,2 0.66,0 1.32,0 2,0 0,0.66 0,1.32 0,2 0.93,0.37 0.93,0.37 1.87,0.75 2.59,1.52 3.05,2.49 4.13,5.25 0.19,2.58 0.19,2.58 0.12,5.25 -0.02,0.89 -0.03,1.79 -0.05,2.71 -0.03,0.67 -0.05,1.35 -0.07,2.04 -0.99,0.5 -0.99,0.5 -2,1 -0.5,1.49 -0.5,1.49 -1,3 -1.85,1.39 -1.85,1.39 -4.07,2.69 -0.73,0.44 -1.46,0.87 -2.22,1.32 -0.85,0.49 -0.85,0.49 -1.71,0.99 1.99,5.22 4.51,9.34 7.89,13.79 1.41,2.81 1,4.26 0.11,7.21 -3.19,0.32 -3.19,0.32 -7,0 C 16.84,47.62 14.43,43.7 11.92,38.95 9.29,33.89 9.29,33.89 5.05,30.13 5.02,30.7 5,31.26 4.97,31.85 4.86,34.4 4.73,36.95 4.61,39.51 4.57,40.4 4.53,41.29 4.49,42.2 c -0.04,0.85 -0.08,1.7 -0.13,2.58 -0.05,1.18 -0.05,1.18 -0.11,2.38 -0.2,1.97 -0.2,1.97 -1.2,3.97 -5.46,0.37 -5.46,0.37 -7.68,-1.12 -1.91,-2.71 -1.68,-4.76 -1.65,-8.04 0,-1.21 0.01,-2.41 0.01,-3.65 0.02,-1.26 0.05,-2.52 0.07,-3.81 0,-1.27 0.01,-2.53 0.01,-3.84 0.08,-9.38 0.08,-9.38 1.24,-10.54 2,-0.04 4,-0.04 6,0 C 0.29,18.96 0.29,18.96 -0.48,17.75 -7.03,7.17 -7.03,7.17 -5.95,1.13 -4.29,-0.53 -2.28,0 0,0 Z"
         fill="#87d7c9"
         transform="translate(540.95312,481.86719)"
         id="path14" /><path
         d="m 0,0 c 5.37,1.34 7.86,4.7 11.49,8.61 2.97,3.1 5.27,5.15 9.51,6.39 0.57,-0.63 0.57,-0.63 1.15,-1.27 1.71,-1.89 3.44,-3.78 5.16,-5.67 0.6,-0.66 1.19,-1.32 1.81,-2 0.57,-0.62 1.15,-1.25 1.74,-1.9 C 31.39,3.58 31.92,3 32.47,2.4 34,1 34,1 37,0 c 0.66,0.33 1.32,0.66 2,1 0.03,6.5 0.04,12.99 0.05,19.49 0.01,2.21 0.02,4.42 0.03,6.63 0.01,3.18 0.01,6.35 0.02,9.52 0,1 0.01,1.99 0.01,3.01 0,0.92 0,1.84 0,2.79 0.01,0.81 0.01,1.62 0.01,2.45 C 39,47 39,47 38,50 31.38,50.25 31.38,50.25 28,48 27.57,45.85 27.57,45.85 27.49,43.21 27.44,41.8 27.44,41.8 27.38,40.36 27.36,39.37 27.34,38.39 27.31,37.38 27.28,36.38 27.24,35.39 27.21,34.37 27.13,31.91 27.06,29.46 27,27 25.89,27.46 25.89,27.46 24.75,27.94 22.49,28.81 20.35,29.48 18,30 17.52,29.43 17.04,28.87 16.54,28.29 15.91,27.55 15.28,26.82 14.62,26.06 14,25.33 13.37,24.6 12.73,23.85 11.12,21.92 11.12,21.92 9,21 c 0.33,2.31 0.66,4.62 1,7 0.33,0 0.66,0 1,0 0.05,2.92 0.09,5.83 0.12,8.75 0.03,1.24 0.03,1.24 0.06,2.5 0,0.8 0.01,1.6 0.02,2.42 0.01,0.74 0.02,1.47 0.03,2.22 C 10.97,46.3 10.19,47.91 9,50 6.69,50 4.38,50 2,50 2,49.34 2,48.68 2,48 1.34,48 0.68,48 0,48 0,32.16 0,16.32 0,0 Z"
         fill="#8adacc"
         transform="translate(623,483)"
         id="path15" /><path
         d="M 0,0 C 2.64,0.33 5.28,0.66 8,1 8,17.5 8,34 8,51 1.84,46.89 -2.75,42.84 -6.5,36.44 -9.01,32.36 -12.68,28.16 -17,26 c 0.16,0.62 0.33,1.25 0.5,1.89 0.7,4.32 0.6,8.55 0.56,12.92 0,0.89 -0.01,1.77 -0.01,2.68 -0.01,2.17 -0.03,4.34 -0.05,6.51 -4.2,1.51 -5.96,0.72 -11,0 0,-15.84 0,-31.68 0,-48 0.99,-0.33 1.98,-0.66 3,-1 0.31,0.45 0.61,0.9 0.93,1.36 4.67,6.58 10.31,12.03 16.07,17.64 1.67,1.66 3.34,3.33 5,5 -0.01,-0.69 -0.02,-1.37 -0.03,-2.08 -0.04,-3.1 -0.07,-6.2 -0.09,-9.3 C -2.14,12.54 -2.16,11.46 -2.18,10.35 -2.18,9.32 -2.19,8.29 -2.2,7.23 -2.21,6.27 -2.22,5.32 -2.23,4.34 -2,2 -2,2 0,0 Z"
         fill="#88d8cb"
         transform="translate(775,481)"
         id="path16" /><path
         d="m 0,0 c 1.19,-0.04 1.19,-0.04 2.41,-0.08 0.69,0.11 1.38,0.22 2.09,0.33 1.97,2.96 2.46,4.52 3.11,7.93 0.3,1.44 0.3,1.44 0.6,2.91 0.4,2.01 0.79,4.03 1.17,6.05 1.24,5.94 2.28,9.34 7.12,13.11 1,1 1,1 1.06,4.56 -0.02,1.14 -0.04,2.27 -0.06,3.44 -0.66,0 -1.32,0 -2,0 0.5,5.94 0.5,5.94 1,12 -1.26,0.04 -2.52,0.08 -3.81,0.13 -0.71,0.02 -1.42,0.04 -2.15,0.07 -2.04,-0.2 -2.04,-0.2 -5.04,-2.2 -1,-2.96 -1.43,-5.92 -2,-9 -4.46,0.5 -4.46,0.5 -9,1 -0.1,1.44 -0.21,2.89 -0.31,4.37 -0.18,2.47 -0.18,2.47 -0.69,4.63 -3.23,2.15 -4.28,2.2 -8,2 -0.5,-1.49 -0.5,-1.49 -1,-3 -0.66,-0.33 -1.32,-0.66 -2,-1 0.72,-4.63 1.67,-9.19 2.75,-13.75 0.17,-0.73 0.34,-1.46 0.52,-2.21 1.53,-6.4 3.26,-12.74 5.07,-19.06 C -8.32,9.26 -7.52,6.34 -6.98,3.3 -6.82,2.62 -6.66,1.95 -6.5,1.25 -4.16,0.08 -2.61,0.05 0,0 Z"
         fill="#85d3c6"
         transform="translate(723.5,481.75)"
         id="path17" /><path
         d="M 0,0 C 2.02,0.07 4.04,0.13 6.05,0.2 7.28,3.86 7.07,7.13 6.93,10.93 6.91,11.68 6.89,12.43 6.86,13.2 6.79,15.59 6.7,17.99 6.62,20.38 6.56,22.01 6.51,23.63 6.46,25.26 6.33,29.24 6.19,33.22 6.05,37.2 c 0.66,0 1.32,0 2,0 0,0.66 0,1.32 0,2 1.61,0.19 3.21,0.38 4.82,0.56 0.89,0.1 1.78,0.21 2.7,0.31 2.62,0.28 2.62,0.28 5.48,-0.87 0.33,-12.54 0.66,-25.08 1,-38 3.48,-1.16 5.46,-0.71 9,0 0.13,5.72 0.22,11.45 0.28,17.18 0.02,1.95 0.06,3.9 0.1,5.85 0.06,2.8 0.09,5.6 0.11,8.41 0.03,0.87 0.05,1.73 0.08,2.62 0,4.27 -0.2,7.04 -2.96,10.42 -4.38,4.23 -8.06,6.2 -14.13,6.71 C 8.62,51.92 3.62,48.8 -0.45,44.63 -0.94,43.83 -1.44,43.02 -1.95,42.2 -2.3,41.65 -2.66,41.11 -3.02,40.56 -4.38,37.09 -4.23,33.67 -4.21,30 c 0,-0.79 0,-1.58 -0.01,-2.39 0,-1.66 0.01,-3.32 0.01,-4.99 0.01,-2.55 0,-5.1 -0.01,-7.65 0,-1.61 0.01,-3.23 0.01,-4.85 C -4.21,9.36 -4.22,8.6 -4.22,7.81 -4.16,0.42 -4.16,0.42 0,0 Z"
         fill="#88d8ca"
         transform="translate(582.94531,480.80469)"
         id="path18" /><path
         d="M 0,0 C 3.68,3.12 5.74,5.21 6.44,10 6.43,13.73 4.99,15.96 3,19.06 c -1.88,2.95 -2.97,4.79 -3.69,8.25 1.1,4.29 3.92,6.24 7.25,8.97 6.98,5.72 6.98,5.72 8,10.16 -0.69,3.13 -2.02,4.64 -4.59,6.53 C 6.09,54.99 2.33,55.56 -2,55 -7.1,52.51 -10.09,48.03 -12.35,42.95 -13.28,40.16 -13.4,37.91 -13,35 c 0.5,-0.93 0.5,-0.93 1,-1.88 1.57,-3.33 1.69,-6.56 1,-10.12 -1.1,-1.76 -1.1,-1.76 -2.5,-3.38 -2.96,-3.66 -3.12,-6.69 -2.85,-11.32 0.48,-3.14 1.16,-4.97 3.35,-7.3 4.56,-2.28 8.11,-2.33 13,-1 z"
         fill="#95e3d6"
         transform="translate(691,327)"
         id="path19" /><path
         d="m 0,0 c 2.28,1.88 3.04,3.04 4.12,5.75 0.45,6.12 -1.51,10.18 -4.91,15.08 -1.69,2.99 -1.49,5.59 -1.09,8.92 0.34,0.66 0.66,1.32 1,2 1.02,6.98 -1.92,11.46 -6,17 -2.22,2.74 -4.28,4.82 -7.98,5.21 -4.65,-0.33 -7.85,-1.66 -11.02,-5.21 -1.12,-2.87 -1.12,-2.87 -1,-6 2.1,-3.18 4.13,-5.32 7.12,-7.65 4.1,-3.05 4.1,-3.05 6.54,-7.36 0.24,-5.03 -1.6,-8.01 -4.66,-11.99 -1.21,-3.65 -1.39,-6.16 -1,-10 C -14.71,-1.47 -7.49,-3.26 0,0 Z"
         fill="#95e3d6"
         transform="translate(594.875,328.25)"
         id="path20" /><path
         d="m 0,0 c 1.03,0 1.03,0 2.08,0 2.19,0.01 4.38,0.02 6.57,0.04 1.48,0 2.97,0 4.45,0.01 3.64,0.01 7.28,0.03 10.92,0.05 1.74,3.21 2.3,5.32 2,9 -2.12,2.12 -6.62,1.42 -9.56,1.56 -0.81,0.04 -1.61,0.09 -2.44,0.13 -2,0.11 -4,0.21 -6,0.31 0.5,0.78 0.99,1.57 1.5,2.37 1.5,2.63 1.5,2.63 1.5,4.63 0.56,0.08 1.12,0.16 1.69,0.25 3.21,1.04 4.99,2.29 7.31,4.75 0.32,3.75 0.32,3.75 0,7 -6.36,1.15 -12.53,1.07 -19,1 -0.33,6.6 -0.66,13.2 -1,20 -7,0 -7,0 -9,-1 0,-9.57 0,-19.14 0,-29 2.97,-0.33 5.94,-0.66 9,-1 -2.16,-4 -4.75,-6.84 -8,-10 -1.47,-2.96 -1.06,-5.74 -1,-9 C -6,-0.39 -3.31,-0.01 0,0 Z"
         fill="#88d7ca"
         transform="translate(450.97656,480.90234)"
         id="path21" /><path
         d="m 0,0 c 2.64,0.66 5.28,1.32 8,2 0,12.54 0,25.08 0,38 5.28,0.33 10.56,0.66 16,1 0.99,0.99 1.98,1.98 3,3 -0.31,3.69 -0.31,3.69 -1,7 -3.12,1.04 -5.27,1.11 -8.54,1.1 -1.08,-0.01 -2.15,-0.01 -3.25,-0.01 -1.12,-0.01 -2.24,-0.02 -3.4,-0.03 -1.13,0 -2.26,-0.01 -3.43,-0.01 C 4.59,52.04 1.79,52.02 -1,52 -5.32,43.36 -2.87,29.8 -2.56,20.38 -2.51,18.59 -2.46,16.8 -2.4,15.02 -2.28,10.68 -2.14,6.34 -2,2 -1.34,2 -0.68,2 0,2 0,1.34 0,0.68 0,0 Z"
         fill="#8adcce"
         transform="translate(673,481)"
         id="path22" /><path
         d="m 0,0 c 4.05,4.77 5.89,9.17 5.76,15.35 -0.82,4.35 -3.33,7.34 -6.45,10.38 -3.94,2.5 -8.44,2.79 -13,2 -4.04,-1.48 -7.05,-3.32 -9.2,-7.12 -2.23,-5.99 -1.92,-10.15 0.51,-16.06 2.14,-3.56 3.91,-5.19 7.82,-6.57 C -3.92,-2.94 -3.92,-2.94 0,0 Z"
         fill="#100f10"
         transform="translate(512.6875,494.26562)"
         id="path23" /><path
         d="M 0,0 C 3,1 3,1 4.69,4.31 6,8 6,8 6,12 c 0.92,0.12 1.83,0.24 2.77,0.37 1.79,0.25 1.79,0.25 3.61,0.51 1.18,0.16 2.36,0.32 3.58,0.49 C 19,14 19,14 21,16 c -2.97,1.98 -5.94,3.96 -9,6 0.12,1.26 0.25,2.52 0.38,3.81 0.06,0.71 0.13,1.42 0.21,2.15 0.34,2.34 0.34,2.34 2.41,5.04 -0.33,0.99 -0.66,1.98 -1,3 -2.88,-0.41 -3.87,-0.86 -5.88,-3.06 -2.01,-2.18 -2.01,-2.18 -5,-2.5 -4.26,0.77 -5.9,2.7 -9.12,5.56 -0.99,0 -1.98,0 -3,0 -1.25,-3.55 -0.72,-5.72 0.44,-9.25 0.43,-1.34 0.43,-1.34 0.87,-2.7 0.23,-0.68 0.45,-1.35 0.69,-2.05 -0.66,0 -1.32,0 -2,0 -1.69,-1.65 -3.35,-3.31 -5,-5 -0.66,-0.33 -1.32,-0.66 -2,-1 0.33,-0.99 0.66,-1.98 1,-3 3.96,0 7.92,0 12,0 0.12,-1.22 0.25,-2.43 0.38,-3.69 C -2.21,5.94 -1.45,3.1 0,0 Z"
         fill="#86d5c7"
         transform="translate(633,405)"
         id="path24" /><path
         d="m 0,0 c 4.04,0.26 6.35,1.23 9.81,3.25 0,0.66 0,1.32 0,2 0.66,0 1.32,0 2,0 2.67,4.55 3.57,7.73 3,13 -1.88,5.78 -5.77,9.14 -11,12 -3.32,0.43 -5.02,0.49 -8,-1 C -4.21,25.28 -4.23,21.31 -4.24,17.34 -4.25,15.99 -4.25,14.64 -4.26,13.29 -4.28,11.35 -4.28,9.41 -4.29,7.47 -4.29,6.3 -4.3,5.14 -4.3,3.93 -4.14,0.04 -3.95,0.31 0,0 Z"
         fill="#100f10"
         transform="translate(805.1875,491.75)"
         id="path25" /><path
         d="M 0,0 C 3.94,2.74 3.94,2.74 4.48,5.12 4.47,5.93 4.46,6.75 4.45,7.59 c 0,0.93 0,1.86 0,2.81 -0.02,1 -0.04,2 -0.06,3.03 -0.01,1.03 -0.01,2.06 -0.02,3.12 -0.02,3.3 -0.07,6.59 -0.12,9.89 -0.02,2.21 -0.04,4.43 -0.05,6.65 -0.04,4.89 -0.1,9.78 -0.17,14.66 -0.04,3.01 -0.03,6.01 0.01,9.01 0,0.97 0.01,1.93 0.02,2.93 0.01,0.97 0.03,1.94 0.04,2.95 C 4,65 4,65 3,66 2.88,68.27 2.82,70.54 2.79,72.81 2.78,73.53 2.77,74.24 2.76,74.97 2.73,77.34 2.71,79.7 2.68,82.07 2.66,83.7 2.64,85.34 2.62,86.97 2.57,91.28 2.52,95.6 2.47,99.91 2.42,104.31 2.36,108.7 2.31,113.1 2.2,121.73 2.1,130.37 2,139 c -0.99,-0.66 -1.98,-1.32 -3,-2 -0.35,-2.39 -0.35,-2.39 -0.32,-5.44 0,-1.16 0.01,-2.31 0.01,-3.5 0.02,-1.28 0.04,-2.55 0.06,-3.86 0.01,-1.35 0.02,-2.7 0.03,-4.05 0.03,-3.67 0.07,-7.35 0.12,-11.02 0.04,-3.83 0.07,-7.67 0.11,-11.5 C -0.93,90.37 -0.85,83.1 -0.77,75.84 -0.68,67.57 -0.6,59.3 -0.52,51.03 -0.37,34.02 -0.19,17.01 0,0 Z"
         fill="#96e3d6"
         transform="translate(937,585)"
         id="path26" /><path
         d="M 0,0 C 2.9,2.4 3.5,4.31 4,8 4.99,8 5.98,8 7,8 7,8.66 7,9.32 7,10 8.11,9.94 9.23,9.88 10.38,9.81 11.57,9.87 12.77,9.94 14,10 c 0.99,1.49 0.99,1.49 2,3 -2.31,1.65 -4.62,3.3 -7,5 0.74,4.08 1.83,8.02 3,12 C 9.03,29.56 7.89,28.9 5.56,26.88 3.18,24.72 3.18,24.72 0.44,25.12 -1.82,25.94 -3.87,26.9 -6,28 c -0.66,0 -1.32,0 -2,0 -1,-3 -1,-3 0.06,-5.94 1.18,-2.91 1.18,-2.91 0.38,-5.31 -1.86,-2.27 -3.68,-2.88 -6.44,-3.75 0.33,-0.99 0.66,-1.98 1,-3 3.3,0 6.6,0 10,0 C -2.69,8.54 -2.38,7.07 -2.06,5.56 -1.12,1.12 -1.12,1.12 0,0 Z"
         fill="#84d0c3"
         transform="translate(668,400)"
         id="path27" /><path
         d="M 0,0 C 3,1 3,1 4.19,3.38 5,6 5,6 5,9 c 2.97,0.33 5.94,0.66 9,1 0.33,1.32 0.66,2.64 1,4 -1.65,1.32 -3.3,2.64 -5,4 0.31,1.46 0.62,2.92 0.94,4.38 0.17,0.81 0.35,1.62 0.52,2.46 C 11.92,27.03 11.92,27.03 13,29 10.37,28.51 8.82,27.88 6.56,26.38 4.11,24.76 4.11,24.76 1.44,25.19 -0.85,25.95 -2.89,26.83 -5,28 c -1.12,-1.62 -1.12,-1.62 -2,-4 0.88,-3.25 0.88,-3.25 2,-6 -0.99,0 -1.98,0 -3,0 0,-0.99 0,-1.98 0,-3 -1.32,-0.66 -2.64,-1.32 -4,-2 0,-0.99 0,-1.98 0,-3 3.3,0 6.6,0 10,0 C -1.86,9.09 -1.71,8.19 -1.56,7.25 -1.14,4.79 -0.65,2.41 0,0 Z"
         fill="#84d0c3"
         transform="translate(601,400)"
         id="path28" /><path
         d="m 0,0 c 1.74,2.3 3.4,4.6 5,7 2.56,0.73 2.56,0.73 5,1 0,0.66 0,1.32 0,2 0.99,0.33 1.98,0.66 3,1 -1.32,0.33 -2.64,0.66 -4,1 0,0.66 0,1.32 0,2 -0.66,0 -1.32,0 -2,0 0.66,2.64 1.32,5.28 2,8 C 6,22 6,22 4.12,20.81 3.42,20.54 2.72,20.28 2,20 c -2.59,1.34 -2.59,1.34 -5,3 -0.99,0 -1.98,0 -3,0 -1.16,-3.6 -1.16,-3.6 -0.25,-5.88 0.48,-2.14 0.48,-2.14 -0.79,-3.71 C -8.31,11.9 -9.65,10.45 -11,9 -6.54,8.5 -6.54,8.5 -2,8 -1.78,6.58 -1.78,6.58 -1.56,5.12 -1,2 -1,2 0,0 Z"
         fill="#81cabe"
         transform="translate(570,392)"
         id="path29" /><path
         d="M 0,0 C 0.72,0.64 1.44,1.28 2.19,1.94 4.98,3.99 6.62,4.61 10,5 c 0,0.66 0,1.32 0,2 0.99,0.33 1.98,0.66 3,1 -3.62,3 -3.62,3 -7,3 0.33,0.6 0.66,1.2 1,1.81 C 8,15 8,15 8,18 5.39,18.93 4.36,19.15 1.75,18.06 0.88,17.54 0.88,17.54 0,17 -0.43,17.5 -0.87,17.99 -1.31,18.5 -3,20 -3,20 -6,20 -5.98,18.93 -5.96,17.86 -5.94,16.75 -5.91,12.74 -5.91,12.74 -7,9 -8.98,7.72 -8.98,7.72 -11,7 -7.87,5.14 -5.63,4.8 -2,5 -1.86,4.36 -1.71,3.72 -1.56,3.06 -1,1 -1,1 0,0 Z"
         fill="#84d0c3"
         transform="translate(700,395)"
         id="path30" /><path
         d="M 0,0 C 0.99,0.33 1.98,0.66 3,1 2.99,2.1 2.99,3.21 2.98,4.35 2.97,8.48 2.95,12.61 2.95,16.74 2.94,18.52 2.93,20.3 2.92,22.09 2.91,24.66 2.91,27.23 2.9,29.81 2.9,30.59 2.89,31.38 2.89,32.19 2.89,37.53 3.33,42.7 4,48 4.96,47.89 4.96,47.89 5.95,47.78 13.32,47.02 20.59,46.89 28,47 c 0,0.66 0,1.32 0,2 -3.12,1.04 -5.27,1.11 -8.54,1.1 -1.08,-0.01 -2.15,-0.01 -3.25,-0.01 -1.12,-0.01 -2.24,-0.02 -3.4,-0.03 -1.13,0 -2.26,-0.01 -3.43,-0.01 C 6.59,50.04 3.79,50.02 1,50 -3.32,41.36 -0.87,27.8 -0.56,18.38 -0.51,16.59 -0.46,14.8 -0.4,13.02 -0.28,8.68 -0.14,4.34 0,0 Z"
         fill="#69a198"
         transform="translate(671,483)"
         id="path31" /><path
         d="m 0,0 c 4.25,1.35 4.25,1.35 5.94,3.94 0.94,2.87 0.94,2.87 1,6 -1.83,3.16 -3.06,4.65 -6.5,5.94 -2.83,0.07 -4.18,-0.36 -6.5,-1.94 -1.6,-3.21 -1.49,-6.53 -1,-10 C -4.92,0.55 -4.03,-0.08 0,0 Z"
         fill="#9ee5d9"
         transform="translate(247.0625,122.0625)"
         id="path32" /><path
         d="M 0,0 C 2,0 2,0 4.23,2.1 5.16,3.07 6.08,4.03 7,5 c 1,1.01 2.01,2.02 3.01,3.03 0.8,0.8 0.8,0.8 1.62,1.63 2.42,2.43 4.85,4.86 7.27,7.3 1.27,1.27 2.54,2.55 3.81,3.82 9,9.09 9,9.09 18.5,17.66 3.43,2.99 6.59,6.26 9.79,9.5 0.68,0.68 1.36,1.37 2.06,2.07 1.65,1.66 3.3,3.32 4.94,4.99 -3,0 -3,0 -4.76,-1.5 C 52.6,52.82 51.97,52.14 51.31,51.44 48.63,48.65 45.94,46.01 43,43.5 39.49,40.48 36.24,37.26 33,33.96 31.08,32.08 29.11,30.35 27.06,28.62 23.07,25.2 19.7,21.36 16.23,17.42 13.62,14.59 10.8,12.15 7.86,9.67 4.94,7.05 2.34,4.14 0,1 0,0.67 0,0.34 0,0 Z"
         fill="#69a198"
         transform="translate(856,197)"
         id="path33" /><path
         d="M 0,0 C 0.66,0.33 1.32,0.66 2,1 2.33,16.51 2.66,32.02 3,48 1.68,47.34 0.36,46.68 -1,46 -1.03,39.77 -1.04,33.54 -1.05,27.31 -1.06,25.19 -1.07,23.07 -1.08,20.95 -1.09,17.91 -1.09,14.86 -1.1,11.82 c 0,-0.95 -0.01,-1.9 -0.01,-2.88 0,-0.89 0,-1.77 0,-2.67 C -1.12,5.49 -1.12,4.71 -1.12,3.91 -1,2 -1,2 0,0 Z"
         fill="#3c5853"
         transform="translate(790,483)"
         id="path34" /><path
         d="m 0,0 c 2.02,0.07 4.04,0.13 6.05,0.2 0.33,0.99 0.66,1.98 1,3 -1.98,-0.66 -3.96,-1.32 -6,-2 0,0.66 0,1.32 0,2 -0.66,0 -1.32,0 -2,0 0,11.55 0,23.1 0,35 -0.99,0 -1.98,0 -3,0 C -3.99,33.1 -4.03,28.01 -4.06,22.92 -4.07,21.19 -4.08,19.46 -4.1,17.73 -4.12,15.24 -4.13,12.75 -4.14,10.27 -4.15,9.49 -4.16,8.71 -4.17,7.91 -4.17,6 -4.07,4.1 -3.95,2.2 c 2,-2 2,-2 3.95,-2.2 z"
         fill="#6ea59c"
         transform="translate(582.94531,480.80469)"
         id="path35" /><path
         d="m 0,0 c 3.47,0.46 6.67,0.89 10,2 1.19,3.06 1.19,3.06 2,6 C 10.04,9.07 8.03,10.07 6,11 5.34,10.67 4.68,10.34 4,10 4,9.34 4,8.68 4,8 3.01,7.67 2.02,7.34 1,7 -0.25,4.56 -0.25,4.56 -1,2 -0.67,1.34 -0.34,0.68 0,0 Z"
         fill="#151919"
         transform="translate(550,491)"
         id="path36" /><path
         d="m 0,0 c 0.99,0.33 1.98,0.66 3,1 0.33,7.26 0.66,14.52 1,22 2.31,0.66 4.62,1.32 7,2 0,0.66 0,1.32 0,2 C 4.38,27.25 4.38,27.25 1,25 0.58,22.89 0.58,22.89 0.52,20.32 0.49,19.39 0.46,18.46 0.43,17.51 0.41,16.53 0.39,15.56 0.38,14.56 0.32,12.65 0.27,10.73 0.21,8.82 0.19,7.97 0.18,7.11 0.16,6.24 0.08,3.83 0.08,3.83 -1,1 -0.67,0.67 -0.34,0.34 0,0 Z"
         fill="#558079"
         transform="translate(650,506)"
         id="path37" /><path
         d="M 0,0 C 0.66,0 1.32,0 2,0 2.64,1.75 2.64,1.75 3,4 2.07,6 2.07,6 0.69,8 -1.09,10.6 -2.65,13.15 -4,16 -5.32,15.67 -6.64,15.34 -8,15 -7.22,11.08 -5.78,7.57 -4,4 -1.81,2.56 -1.81,2.56 0,2 0,1.34 0,0.68 0,0 Z"
         fill="#1b2726"
         transform="translate(603,363)"
         id="path38" /><path
         d="m 0,0 c 3.06,-0.25 3.06,-0.25 6,0 0.33,0.33 0.66,0.66 1,1 1.56,0.12 3.13,0.18 4.7,0.21 1.5,0.03 1.5,0.03 3.04,0.06 1.63,0.02 1.63,0.02 3.3,0.05 1.1,0.02 2.21,0.04 3.35,0.06 3.56,0.06 7.12,0.12 10.67,0.18 2.41,0.05 4.81,0.09 7.22,0.13 C 45.18,1.8 51.09,1.9 57,2 57,2.33 57,2.66 57,3 37.53,3 18.06,3 -2,3 -1.34,2.01 -0.68,1.02 0,0 Z"
         fill="#95e3d6"
         transform="translate(633,114)"
         id="path39" /><path
         d="M 0,0 C 0.33,0.66 0.66,1.32 1,2 1.96,1.89 1.96,1.89 2.95,1.78 10.32,1.02 17.59,0.89 25,1 25,1.66 25,2.32 25,3 21.88,4.04 19.73,4.11 16.46,4.1 15.38,4.09 14.31,4.09 13.21,4.09 12.09,4.08 10.97,4.07 9.81,4.06 8.68,4.06 7.55,4.05 6.38,4.05 3.59,4.04 0.79,4.02 -2,4 -2,3.34 -2,2.68 -2,2 -1.34,2 -0.68,2 0,2 0,1.34 0,0.68 0,0 Z"
         fill="#5b8a83"
         transform="translate(674,529)"
         id="path40" /><path
         d="M 0,0 C 1.67,0 3.33,0 5,0 5.87,1.77 6.72,3.54 7.56,5.31 8.28,6.79 8.28,6.79 9,8.3 10,11 10,11 9,14 8.01,14 7.02,14 6,14 5,12.04 4,10.09 3,8.12 2.16,6.49 2.16,6.49 1.31,4.82 0,2 0,2 0,0 Z"
         fill="#1e2e2c"
         transform="translate(667,369)"
         id="path41" /><path
         d="m 0,0 c 0.33,0 0.66,0 1,0 0.05,2.92 0.09,5.83 0.12,8.75 0.03,1.24 0.03,1.24 0.06,2.5 0,0.8 0.01,1.6 0.02,2.42 0.01,0.74 0.02,1.47 0.03,2.22 C 0.97,18.3 0.19,19.91 -1,22 c -2.31,0 -4.62,0 -7,0 0,-0.66 0,-1.32 0,-2 3.47,-0.5 3.47,-0.5 7,-1 -0.01,-1.29 -0.02,-2.58 -0.04,-3.9 0,-1.68 -0.01,-3.36 -0.02,-5.04 -0.01,-0.85 -0.02,-1.7 -0.03,-2.57 0,-0.81 0,-1.62 -0.01,-2.45 0,-0.75 -0.01,-1.5 -0.01,-2.27 C -1,1 -1,1 0,0 Z"
         fill="#60928a"
         transform="translate(633,511)"
         id="path42" /><path
         d="M 0,0 C 0.99,0.5 0.99,0.5 2,1 2.33,16.51 2.66,32.02 3,48 2.01,47.67 1.02,47.34 0,47 0,31.49 0,15.98 0,0 Z"
         fill="#476963"
         transform="translate(790,483)"
         id="path43" /><path
         d="M 0,0 C 0.99,0.66 1.98,1.32 3,2 5.97,2.46 5.97,2.46 9.19,2.62 10.27,2.7 11.36,2.77 12.48,2.85 13.73,2.93 13.73,2.93 15,3 15,3.33 15,3.66 15,4 13.06,4.17 11.13,4.33 9.19,4.5 7.57,4.64 7.57,4.64 5.92,4.78 3.59,4.96 1.33,5 -1,5 -1.33,6.98 -1.66,8.96 -2,11 -2.66,11 -3.32,11 -4,11 -4.81,7.75 -4.81,7.75 -5,4 -2.56,1.56 -2.56,1.56 0,0 Z"
         fill="#1e2d2b"
         transform="translate(615,414)"
         id="path44" /><path
         d="M 0,0 C 0.99,0.33 1.98,0.66 3,1 2.34,1 1.68,1 1,1 1.16,1.62 1.33,2.25 1.5,2.89 2.2,7.21 2.1,11.44 2.06,15.81 2.06,16.7 2.05,17.58 2.05,18.49 2.04,20.66 2.02,22.83 2,25 c -1.32,0.33 -2.64,0.66 -4,1 0,-0.66 0,-1.32 0,-2 0.66,0 1.32,0 2,0 C 0,16.08 0,8.16 0,0 Z"
         fill="#6b9f97"
         transform="translate(757,506)"
         id="path45" /><path
         d="m 0,0 c 4.62,0.85 6.99,3.65 10.12,6.94 0.54,0.55 1.08,1.1 1.63,1.67 1.43,1.46 2.84,2.92 4.25,4.39 0.66,0.66 1.32,1.32 2,2 0,0.66 0,1.32 0,2 C 14.01,15.4 11.37,12.6 8.44,9.56 7.96,9.07 7.47,8.58 6.98,8.08 5.65,6.72 4.32,5.36 3,4 2.39,3.41 1.79,2.82 1.16,2.21 0,1 0,1 0,0 Z"
         fill="#6ca69c"
         transform="translate(623,483)"
         id="path46" /><path
         d="m 0,0 c 0.99,0 1.98,0 3,0 0.66,2.97 1.32,5.94 2,9 2.31,0 4.62,0 7,0 0.33,-1.32 0.66,-2.64 1,-4 0,1.98 0,3.96 0,6 -1.26,0.04 -2.52,0.08 -3.81,0.12 C 8.48,11.15 7.77,11.17 7.04,11.2 5,11 5,11 2,9 1.27,6.84 1.27,6.84 0.81,4.38 0.65,3.56 0.5,2.74 0.33,1.9 0.22,1.27 0.11,0.65 0,0 Z"
         fill="#71ada3"
         transform="translate(727,521)"
         id="path47" /><path
         d="m 0,0 c 0.33,0 0.66,0 1,0 0.33,8.58 0.66,17.16 1,26 1.98,0.33 3.96,0.66 6,1 0,0.66 0,1.32 0,2 -2.81,0.25 -2.81,0.25 -6,0 -2.3,-2.23 -2.96,-3.54 -3.25,-6.75 0.06,-1.03 0.12,-2.05 0.18,-3.11 0.08,-1.67 0.08,-1.67 0.16,-3.38 0.07,-1.16 0.15,-2.32 0.22,-3.51 C -0.63,11.08 -0.57,9.9 -0.5,8.69 -0.35,5.79 -0.18,2.9 0,0 Z"
         fill="#6ea79d"
         transform="translate(536,504)"
         id="path48" /><path
         d="M 0,0 C 3.91,0.58 6.3,2.15 9,5 9.31,8.75 9.31,8.75 9,12 6.69,12.33 4.38,12.66 2,13 2,12.34 2,11.68 2,11 3.32,10.67 4.64,10.34 6,10 5.59,5.17 3.54,3.17 0,0 Z"
         fill="#75b2a8"
         transform="translate(462,499)"
         id="path49" /><path
         d="m 0,0 c 3.45,1.48 5.65,3.44 8.25,6.12 0.71,0.73 1.41,1.45 2.14,2.2 0.8,0.83 0.8,0.83 1.61,1.68 -0.33,0.99 -0.66,1.98 -1,3 C 10.54,12.51 10.08,12.01 9.61,11.5 9,10.86 8.38,10.22 7.75,9.56 7.15,8.92 6.54,8.29 5.92,7.63 3.9,5.91 2.59,5.41 0,5 0,3.35 0,1.7 0,0 Z"
         fill="#1f2d2b"
         transform="translate(758,507)"
         id="path50" /><path
         d="M 0,0 C 3.31,1.45 5.57,3.27 8.12,5.81 8.81,6.48 9.49,7.15 10.2,7.83 12.11,10.13 13.05,12.18 14,15 8.97,10.7 3.97,6.37 -1,2 -0.67,1.34 -0.34,0.68 0,0 Z"
         fill="#6ca59c"
         transform="translate(655,359)"
         id="path51" /><path
         d="M 0,0 C 0.66,0 1.32,0 2,0 2,4.62 2,9.24 2,14 0.68,13.34 -0.64,12.68 -2,12 -2.18,7.45 -2,4.12 0,0 Z"
         fill="#76b3a9"
         transform="translate(597,381)"
         id="path52" /><path
         d="m 0,0 c 4.16,3.4 7.71,6.73 11,11 0.66,0.33 1.32,0.66 2,1 -0.33,0.99 -0.66,1.98 -1,3 C 7.4,11.65 3.31,7.64 0,3 0,2.01 0,1.02 0,0 Z"
         fill="#71aba2"
         transform="translate(770,517)"
         id="path53" /><path
         d="M 0,0 C 0.59,0.08 1.18,0.17 1.79,0.25 6.2,0.82 9.63,0.93 14,0 14.66,0.66 15.32,1.32 16,2 10.68,4.32 6.56,3.91 1,3 0.67,2.01 0.34,1.02 0,0 Z"
         fill="#39534f"
         transform="translate(680,385)"
         id="path54" /><path
         d="M 0,0 C 0.66,0 1.32,0 2,0 2.65,1.73 2.65,1.73 3,4 2,6.14 2,6.14 0.56,8.25 0.09,8.96 -0.38,9.66 -0.87,10.39 -1.24,10.92 -1.62,11.45 -2,12 -2.66,11.01 -3.32,10.02 -4,9 -3.25,6.56 -3.25,6.56 -2,4 -1.63,3.24 -1.26,2.47 -0.88,1.69 -0.59,1.13 -0.3,0.57 0,0 Z"
         fill="#253735"
         transform="translate(603,363)"
         id="path55" /><path
         d="M 0,0 C 0.33,0 0.66,0 1,0 2.97,4.93 3.18,8.78 3,14 2.01,14.5 2.01,14.5 1,15 -1.1,11.85 -1.25,11.09 -1.19,7.5 -1.18,6.34 -1.18,6.34 -1.17,5.16 -1,3 -1,3 0,0 Z"
         fill="#95e3d6"
         transform="translate(938,537)"
         id="path56" /><path
         d="M 0,0 C 1.9,3.55 2.96,7.11 4.02,10.98 5.26,13.53 6.49,13.83 9,15 9.33,15.99 9.66,16.98 10,18 6.55,17.74 5.76,16.74 3.31,14.12 -0.32,9.21 -0.1,5.86 0,0 Z"
         fill="#72ada4"
         transform="translate(487,504)"
         id="path57" /><path
         d="M 0,0 C 0.99,0 1.98,0 3,0 3,0.66 3,1.32 3,2 4.11,1.94 5.23,1.88 6.38,1.81 8.17,1.91 8.17,1.91 10,2 10.99,3.49 10.99,3.49 12,5 9.52,6.49 9.52,6.49 7,8 7.33,6.68 7.66,5.36 8,4 5.69,4 3.38,4 1,4 0.67,2.68 0.34,1.36 0,0 Z"
         fill="#6da59c"
         transform="translate(672,408)"
         id="path58" /><path
         d="M 0,0 C 3,1 3,1 5,4 4.67,4.99 4.34,5.98 4,7 3.01,7.33 2.02,7.66 1,8 0.34,8.99 -0.32,9.98 -1,11 -2.03,6.59 -2.04,4.07 0,0 Z"
         fill="#72ada4"
         transform="translate(633,405)"
         id="path59" /><path
         d="M 0,0 C 0.99,0.33 1.98,0.66 3,1 4.19,4.56 4.19,4.56 5,8 4.38,8.12 3.76,8.25 3.12,8.38 0.81,8.87 0.81,8.87 -1,11 -1.14,3.57 -1.14,3.57 0,0 Z"
         fill="#6fa99f"
         transform="translate(601,400)"
         id="path60" /><path
         d="M 0,0 C 2,0 2,0 4.19,2.06 5.13,3.04 6.06,4.02 7,5 8.27,6.27 9.54,7.54 10.81,8.81 11.88,9.88 12.94,10.94 14,12 13.01,12.33 12.02,12.66 11,13 9.35,11.4 7.7,9.8 6.06,8.19 5.15,7.29 4.23,6.4 3.29,5.48 1,3 1,3 0,0 Z"
         fill="#79b6ac"
         transform="translate(856,197)"
         id="path61" /><path
         d="M 0,0 C 0.33,0 0.66,0 1,0 1.18,0.58 1.36,1.16 1.55,1.76 3.04,6.39 4.68,10.7 7,15 6.01,15 5.02,15 4,15 -1.06,7.12 -1.06,7.12 -0.81,2.44 -0.54,1.63 -0.28,0.83 0,0 Z"
         fill="#76b5ab"
         transform="translate(536,484)"
         id="path62" /><path
         d="m 0,0 c 0.91,0.01 1.82,0.02 2.76,0.03 0.7,0.01 1.4,0.02 2.12,0.03 0,0.99 0,1.98 0,3 C 3.25,3.12 1.63,3.16 0,3.19 -0.9,3.21 -1.81,3.23 -2.74,3.26 -5.12,3.06 -5.12,3.06 -7.12,1.06 -4.6,-0.2 -2.81,-0.04 0,0 Z"
         fill="#496b66"
         transform="translate(586.125,384.9375)"
         id="path63" /><path
         d="M 0,0 C 1.42,-0.05 2.83,-0.09 4.25,-0.12 5.04,-0.15 5.83,-0.17 6.64,-0.2 9.21,0.02 10.79,0.71 13,2 10.01,2.87 7.36,3.11 4.25,3.06 3.45,3.05 2.65,3.04 1.83,3.04 1.22,3.02 0.62,3.01 0,3 0,2.01 0,1.02 0,0 Z"
         fill="#58847d"
         transform="translate(798,530)"
         id="path64" /><path
         d="m 0,0 c 0,0.99 0,1.98 0,3 -0.66,0 -1.32,0 -2,0 0.33,0.91 0.66,1.81 1,2.75 C 0,9 0,9 0,13 -2.98,9.93 -3.96,8.54 -4.25,4.19 -4.17,3.14 -4.08,2.08 -4,1 -2,0 -2,0 0,0 Z"
         fill="#7cc0b5"
         transform="translate(446,481)"
         id="path65" /><path
         d="M 0,0 C 0.66,0.33 1.32,0.66 2,1 1.67,2.65 1.34,4.3 1,6 -5.52,6.37 -5.52,6.37 -7.94,4.5 -8.46,3.76 -8.46,3.76 -9,3 -7.89,3.06 -6.77,3.12 -5.62,3.19 -4.43,3.13 -3.23,3.06 -2,3 -1.34,2.01 -0.68,1.02 0,0 Z"
         fill="#60948b"
         transform="translate(568,527)"
         id="path66" /><path
         d="m 0,0 c 3.3,0.33 6.6,0.66 10,1 0,0.33 0,0.66 0,1 C 8.02,2 6.04,2 4,2 4.66,3.65 5.32,5.3 6,7 5.34,7 4.68,7 4,7 4,6.34 4,5.68 4,5 1.52,4.01 1.52,4.01 -1,3 -0.67,2.01 -0.34,1.02 0,0 Z"
         fill="#77b3a9"
         transform="translate(655,410)"
         id="path67" /><path
         d="M 0,0 C 0.33,0.99 0.66,1.98 1,3 0,4 0,4 -2.94,4.25 -3.95,4.17 -4.96,4.09 -6,4 -6.66,3.01 -7.32,2.02 -8,1 -5.29,-0.35 -2.99,-0.07 0,0 Z"
         fill="#8bddcf"
         transform="translate(395,722)"
         id="path68" /><path
         d="M 0,0 C 0.33,0 0.66,0 1,0 1,1.98 1,3.96 1,6 1.66,6.33 2.32,6.66 3,7 2.34,7.66 1.68,8.32 1,9 0.01,9 -0.98,9 -2,9 -2.93,5.99 -3.04,5.13 -2,2 -1.34,2 -0.68,2 0,2 0,1.34 0,0.68 0,0 Z"
         fill="#6ca59c"
         transform="translate(626,432)"
         id="path69" /><path
         d="m 0,0 c -2.77,3.08 -5.06,4.69 -9,6 1.65,-1.98 3.3,-3.96 5,-6 -2.97,0 -5.94,0 -9,0 0,-0.33 0,-0.66 0,-1 4.94,-1.21 8.21,-0.63 13,1 z"
         fill="#72aca2"
         transform="translate(654,420)"
         id="path70" /><path
         d="m 0,0 c 4.29,0.33 8.58,0.66 13,1 0,0.33 0,0.66 0,1 C 10.03,2 7.06,2 4,2 4,2.99 4,3.98 4,5 1.52,4.01 1.52,4.01 -1,3 -0.67,2.01 -0.34,1.02 0,0 Z"
         fill="#77b4aa"
         transform="translate(618,418)"
         id="path71" /><path
         d="M 0,0 C 2.48,0.5 2.48,0.5 5,1 5.33,2.32 5.66,3.64 6,5 4.02,5 2.04,5 0,5 0,3.35 0,1.7 0,0 Z"
         fill="#8bddcf"
         transform="translate(0,850)"
         id="path72" /><path
         d="M 0,0 C 0.99,0.66 1.98,1.32 3,2 2.28,2.61 2.28,2.61 1.54,3.24 0.91,3.78 0.28,4.32 -0.38,4.88 -1,5.41 -1.63,5.94 -2.27,6.49 -3.56,7.61 -4.79,8.79 -6,10 -6.33,9.01 -6.66,8.02 -7,7 -4.69,4.69 -2.38,2.38 0,0 Z"
         fill="#83cbbf"
         transform="translate(489,485)"
         id="path73" /></g></g></svg>
